<?xml version="1.0" encoding="utf-8"?>
<!-- Generator: Adobe Illustrator 24.0.1, SVG Export Plug-In . SVG Version: 6.00 Build 0)  -->
<svg version="1.1" id="Слой_1" xmlns="http://www.w3.org/2000/svg" xmlns:xlink="http://www.w3.org/1999/xlink" x="0px" y="0px"
	 viewBox="0 0 1549.68 1482.15" style="enable-background:new 0 0 1549.68 1482.15;" xml:space="preserve">
<style type="text/css">
	.st0{fill:#FFA07A;}
</style>
<g>
	<path class="st0" d="M533.04,1385.72c53.71-25.98,93.23-44.45,132.19-64.06c166.05-83.56,239.74-258.12,177.15-433.94
		c-51.85-145.66-167.8-246.45-259.39-364.12c-5.08,3.59-10.17,7.17-15.25,10.76c37.12,51.18,75.74,101.35,110.96,153.79
		c42.42,63.15,90.98,124.33,120.8,193.32c55.93,129.38,31.12,250.94-65.93,354.93c-16.27,17.44-37.65,30.11-63.86,50.61
		c-43.29-81.75-87.23-155.36-122.08-233.07c-38.57-86-92.09-139.06-193.26-124.53c-34.3,4.93-53.34-12.73-58.9-47.15
		c-12.67-78.37-27.12-156.47-38.81-234.98c-1.71-11.48,4.61-27.25,12.51-36.54c37.84-44.49,39.62-96.06,39.1-151.06
		c-0.75-79.46,1.4-159.42,10.37-238.24c2.94-25.86,26.66-53.98,48.29-72.28c89.35-75.61,197.44-82.27,308.51-78.85
		c284.21,8.75,544.04,182.55,613.86,426.21c71.53,249.63,34.57,488.69-104.36,709.18c-52.88,83.93-142.86,152.72-248.85,197.23
		c115.27-106.79,188.64-231.91,175.05-395.28c-19.65,133.31-56.4,257.94-172.99,341.2c-61.37,43.83-130.45,65.51-220.71,73.58
		c54.53-35.21,97.03-60.15,136.87-88.79c226.66-162.95,258.16-413.39,78.46-625.38c-49.18-58.02-101.39-113.47-152.21-170.1
		c-3.75,2.88-7.5,5.76-11.26,8.64c19.86,24.97,39.89,49.81,59.55,74.94c49.34,63.1,106.04,121.92,146.18,190.43
		c85.09,145.26,52.56,324.7-71.48,446.21C812.51,1347.55,678.6,1396.01,533.04,1385.72z"/>
</g>
</svg>
